# xmcd CD database file
#
# Track frame offsets:
#	150
#	22907
#	50610
#	68651
#	94946
#	112587
#	133729
#	167957
#	193353
#	217916
#	244264
#	267336
#
# Disc length: 4021 seconds
#
# Revision: 0
# Processed by: cddbd v1.5.2PL0 Copyright (c) Steve Scherf et al.
# Submitted via: CDex 1.70beta2
#
DISCID=aa0fb30c
DTITLE=Albert Castiglia - Keepin' On
DYEAR=2010
DGENRE=Blues
TTITLE0=Cadillac Assembly Line
TTITLE1=Till I Fell In Love With You
TTITLE2=Mojo 305
TTITLE3=Keep On Keepin' On
TTITLE4=My Baby Is Now On My Mind
TTITLE5=Do You Love Me
TTITLE6=Could Not ask For More
TTITLE7=Sweet Southern Angel
TTITLE8=Murderin' Blues
TTITLE9=Goin' Upstairs
TTITLE10=Gettin' By
TTITLE11=Closing Time
EXTD=YEAR: 2010
EXTT0=
EXTT1=
EXTT2=
EXTT3=
EXTT4=
EXTT5=
EXTT6=
EXTT7=
EXTT8=
EXTT9=
EXTT10=
EXTT11=
PLAYORDER=
